<svg xmlns="http://www.w3.org/2000/svg" width="1500" height="520" viewBox="0 0 1500 520">
  <rect width="1500" height="520" fill="#f8fafc"/>
  <style>.h{font:700 28px 'Microsoft YaHei',sans-serif;fill:#15324b}.t{font:700 20px 'Microsoft YaHei',sans-serif;fill:white}.s{font:16px 'Microsoft YaHei',sans-serif;fill:#314556}.a{stroke:#607d8b;stroke-width:4;fill:none;marker-end:url(#m)}.b{rx:18}</style>
  <defs><marker id="m" markerWidth="10" markerHeight="10" refX="8" refY="3" orient="auto"><path d="M0,0 L0,6 L9,3 z" fill="#607d8b"/></marker></defs>
  <text x="750" y="55" text-anchor="middle" class="h">可审计知识库构建与问答流程</text>
  <g transform="translate(45,130)"><rect width="230" height="120" class="b" fill="#246b88"/><text x="115" y="52" text-anchor="middle" class="t">来源登记</text><text x="115" y="84" text-anchor="middle" class="s">版本 · URL · 许可</text></g>
  <path d="M275 190 L330 190" class="a"/>
  <g transform="translate(335,130)"><rect width="230" height="120" class="b" fill="#246b88"/><text x="115" y="52" text-anchor="middle" class="t">多格式采集</text><text x="115" y="84" text-anchor="middle" class="s">MD/TXT/PDF/C++</text></g>
  <path d="M565 190 L620 190" class="a"/>
  <g transform="translate(625,130)"><rect width="230" height="120" class="b" fill="#246b88"/><text x="115" y="52" text-anchor="middle" class="t">结构化切分</text><text x="115" y="84" text-anchor="middle" class="s">章节 · 函数 · 去重</text></g>
  <path d="M855 190 L910 190" class="a"/>
  <g transform="translate(915,130)"><rect width="230" height="120" class="b" fill="#68558f"/><text x="115" y="52" text-anchor="middle" class="t">混合召回</text><text x="115" y="84" text-anchor="middle" class="s">向量 · BM25 · 术语</text></g>
  <path d="M1145 190 L1200 190" class="a"/>
  <g transform="translate(1205,130)"><rect width="250" height="120" class="b" fill="#68558f"/><text x="125" y="52" text-anchor="middle" class="t">ChatECNU 增强</text><text x="125" y="84" text-anchor="middle" class="s">重排 · 回答 · 术语</text></g>
  <path d="M1330 250 L1330 330 L755 330 L755 375" class="a"/>
  <g transform="translate(525,380)"><rect width="460" height="90" class="b" fill="#163f5b"/><text x="230" y="42" text-anchor="middle" class="t">引用校验与可展开证据</text><text x="230" y="70" text-anchor="middle" class="s">API 失败时返回已标注的本地证据</text></g>
</svg>
