<svg xmlns="http://www.w3.org/2000/svg" width="1400" height="760" viewBox="0 0 1400 760">
 <rect width="1400" height="760" rx="28" fill="#f7fafc"/><rect x="35" y="30" width="1330" height="700" rx="22" fill="white" stroke="#d5e1e8" stroke-width="3"/>
 <style>.h{font:700 30px 'Microsoft YaHei',sans-serif;fill:#15324b}.t{font:20px 'Microsoft YaHei',sans-serif;fill:#2a3a46}.s{font:17px 'Microsoft YaHei',sans-serif;fill:#526875}.tab{font:700 19px 'Microsoft YaHei',sans-serif;fill:#2e718f}</style>
 <text x="80" y="88" class="h">底层系统代码智能问答助手 v4</text>
 <rect x="80" y="112" width="1240" height="70" rx="12" fill="#eef6fa"/><text x="110" y="142" class="s">本地模型：Qwen2.5-Coder（按需加载）　向量后端：CodeBERT / Hash</text><text x="110" y="168" class="s">知识库：20260622-c9a8deafb99b　ChatECNU：配置状态可见</text>
 <text x="90" y="225" class="tab">代码解析</text><text x="240" y="225" class="tab">代码问答</text><text x="390" y="225" class="tab">知识问答</text><text x="540" y="225" class="tab">术语解释</text>
 <rect x="75" y="245" width="600" height="420" rx="16" fill="#12212b"/><text x="105" y="285" style="font:18px Consolas;fill:#8bd5ca">struct PipeReg { int rd; bool valid; };</text><text x="105" y="325" style="font:18px Consolas;fill:#f5c2e7">bool hasRAW(...)</text><text x="105" y="365" style="font:18px Consolas;fill:#cdd6f4">// 输入代码仅发送给本地模型</text>
 <rect x="710" y="245" width="610" height="420" rx="16" fill="#fbfcfd" stroke="#c9d8e2" stroke-width="2"/><text x="745" y="295" class="h">带证据的知识回答</text><text x="745" y="345" class="t">Cache 地址由 tag、index、offset 组成 [S1]</text><text x="745" y="390" class="s">S1 · cache_extended_manual.md · L12-L18</text><rect x="745" y="430" width="520" height="90" rx="10" fill="#f2eef9"/><text x="770" y="470" class="s">API 失败：明确显示“未完成 ChatECNU 增强”</text><text x="770" y="500" class="s">仍可展开本地证据，不伪造模型结论</text>
</svg>
